<?xml version="1.0" encoding="UTF-8" standalone="no"?>
<!-- Created with Inkscape (http://www.inkscape.org/) -->
<svg
   xmlns:dc="http://purl.org/dc/elements/1.1/"
   xmlns:cc="http://web.resource.org/cc/"
   xmlns:rdf="http://www.w3.org/1999/02/22-rdf-syntax-ns#"
   xmlns:svg="http://www.w3.org/2000/svg"
   xmlns="http://www.w3.org/2000/svg"
   xmlns:xlink="http://www.w3.org/1999/xlink"
   xmlns:sodipodi="http://sodipodi.sourceforge.net/DTD/sodipodi-0.dtd"
   xmlns:inkscape="http://www.inkscape.org/namespaces/inkscape"
   width="800"
   height="235"
   id="svg2"
   sodipodi:version="0.32"
   inkscape:version="0.45.1"
   sodipodi:docbase="/Users/olivierhuin/Documents/freelance ltd/projects/creation ltd/website"
   sodipodi:docname="head-title.svg"
   inkscape:output_extension="org.inkscape.output.svg.inkscape"
   version="1.0"
   inkscape:export-filename="/Users/olivierhuin/Documents/freelance ltd/projects/creation ltd/website/head-title.jpg"
   inkscape:export-xdpi="90"
   inkscape:export-ydpi="90">
  <defs
     id="defs4">
    <linearGradient
       id="linearGradient3209">
      <stop
         style="stop-color:#a40000;stop-opacity:1;"
         offset="0"
         id="stop3211" />
      <stop
         style="stop-color:#f57900;stop-opacity:0.98969072;"
         offset="1"
         id="stop3213" />
    </linearGradient>
    <linearGradient
       id="linearGradient3201">
      <stop
         style="stop-color:#000000;stop-opacity:1;"
         offset="0"
         id="stop3203" />
      <stop
         style="stop-color:#000000;stop-opacity:0;"
         offset="1"
         id="stop3205" />
    </linearGradient>
    <linearGradient
       inkscape:collect="always"
       xlink:href="#linearGradient3209"
       id="linearGradient3215"
       x1="2.2824576"
       y1="82.682716"
       x2="766.4436"
       y2="82.682716"
       gradientUnits="userSpaceOnUse"
       gradientTransform="translate(18.850113,65.975396)" />
    <linearGradient
       gradientUnits="userSpaceOnUse"
       y2="66.447067"
       x2="181.61963"
       y1="67.09687"
       x1="53.283756"
       id="linearGradient7057"
       xlink:href="#linearGradient7051"
       inkscape:collect="always" />
    <radialGradient
       gradientUnits="userSpaceOnUse"
       gradientTransform="matrix(1.9564164,-4.8426086e-3,8.4729828e-4,0.3414033,-48.216618,47.108368)"
       r="67.092049"
       fy="61.165695"
       fx="50.35965"
       cy="61.165695"
       cx="50.35965"
       id="radialGradient5092"
       xlink:href="#linearGradient5086"
       inkscape:collect="always" />
    <linearGradient
       y2="48.039455"
       x2="142.45059"
       y1="48.462292"
       x1="16.661303"
       gradientUnits="userSpaceOnUse"
       id="linearGradient2231"
       xlink:href="#linearGradient2219"
       inkscape:collect="always" />
    <linearGradient
       gradientUnits="userSpaceOnUse"
       y2="48.039455"
       x2="171.77449"
       y1="48.462292"
       x1="16.661303"
       id="linearGradient2225"
       xlink:href="#linearGradient2219"
       inkscape:collect="always" />
    <linearGradient
       id="linearGradient2219">
      <stop
         id="stop2221"
         offset="0"
         style="stop-color:#000000;stop-opacity:1;" />
      <stop
         id="stop2223"
         offset="1"
         style="stop-color:#000000;stop-opacity:0;" />
    </linearGradient>
    <linearGradient
       id="linearGradient2246">
      <stop
         id="stop2248"
         offset="0"
         style="stop-color:#a40000;stop-opacity:1;" />
      <stop
         style="stop-color:#ffd457;stop-opacity:0.49803922;"
         offset="1"
         id="stop2254" />
    </linearGradient>
    <linearGradient
       id="linearGradient5086"
       inkscape:collect="always">
      <stop
         id="stop5088"
         offset="0"
         style="stop-color:#000000;stop-opacity:1;" />
      <stop
         id="stop5090"
         offset="1"
         style="stop-color:#000000;stop-opacity:0;" />
    </linearGradient>
    <linearGradient
       id="linearGradient7051"
       inkscape:collect="always">
      <stop
         id="stop7053"
         offset="0"
         style="stop-color:#555753;stop-opacity:1;" />
      <stop
         id="stop7055"
         offset="1"
         style="stop-color:#555753;stop-opacity:0;" />
    </linearGradient>
  </defs>
  <sodipodi:namedview
     id="base"
     pagecolor="#ffffff"
     bordercolor="#666666"
     borderopacity="1.0"
     gridtolerance="10000"
     guidetolerance="10"
     objecttolerance="10"
     inkscape:pageopacity="0.0"
     inkscape:pageshadow="2"
     inkscape:zoom="1.0610016"
     inkscape:cx="439.07817"
     inkscape:cy="141.14589"
     inkscape:document-units="px"
     inkscape:current-layer="layer2"
     inkscape:window-width="999"
     inkscape:window-height="638"
     inkscape:window-x="69"
     inkscape:window-y="85"
     width="800px"
     height="235px"
     showguides="true"
     inkscape:guide-bbox="true" />
  <metadata
     id="metadata7">
    <rdf:RDF>
      <cc:Work
         rdf:about="">
        <dc:format>image/svg+xml</dc:format>
        <dc:type
           rdf:resource="http://purl.org/dc/dcmitype/StillImage" />
      </cc:Work>
    </rdf:RDF>
  </metadata>
  <g
     inkscape:groupmode="layer"
     id="layer2"
     inkscape:label="background"
     sodipodi:insensitive="true">
    <rect
       style="fill:#000000;fill-opacity:1;fill-rule:evenodd;stroke:#000000;stroke-width:1.51171649;stroke-miterlimit:4;stroke-dasharray:none;stroke-opacity:1"
       id="rect2253"
       width="799.22906"
       height="233.72569"
       x="1.8928696"
       y="1.266458"
       rx="0"
       ry="5.8776698" />
  </g>
  <g
     inkscape:label="frame"
     inkscape:groupmode="layer"
     id="layer1"
     sodipodi:insensitive="true"
     style="display:none">
    <rect
       style="fill:url(#linearGradient3215);fill-opacity:1;fill-rule:evenodd;stroke:#000000;stroke-width:1.50556588;stroke-miterlimit:4;stroke-dasharray:none;stroke-opacity:1"
       id="rect2178"
       width="762.65558"
       height="158.58438"
       x="21.885353"
       y="69.365929"
       ry="15.208314"
       rx="15.152288" />
  </g>
  <g
     inkscape:groupmode="layer"
     id="layer3"
     inkscape:label="logo"
     sodipodi:insensitive="true">
    <g
       id="g2559"
       transform="matrix(0.8601103,0,0,0.8094432,-2.9519908,-22.62815)">
      <g
         sodipodi:insensitive="true"
         style="display:none"
         inkscape:label="back box"
         id="layer10">
        <rect
           y="48.406723"
           x="6.8581471"
           height="45.834244"
           width="42.353165"
           id="rect3695"
           style="fill:#babdb6;stroke:none;stroke-width:1.29700005;stroke-miterlimit:4;stroke-dasharray:none;stroke-opacity:1" />
        <path
           transform="translate(-66.393859,-0.8793889)"
           sodipodi:open="true"
           sodipodi:end="0.11993415"
           sodipodi:start="0"
           d="M 81.805422,95.13118 A 9.2828846,11.313516 0 0 1 81.738738,96.484806"
           sodipodi:ry="11.313516"
           sodipodi:rx="9.2828846"
           sodipodi:cy="95.13118"
           sodipodi:cx="72.522537"
           id="path3697"
           style="fill:#204a87;stroke:none;stroke-width:1.29700005;stroke-miterlimit:4;stroke-dasharray:none;stroke-opacity:1"
           sodipodi:type="arc" />
      </g>
      <g
         sodipodi:insensitive="true"
         style="display:none"
         inkscape:label="test"
         id="layer14">
        <rect
           y="48.577511"
           x="51.009449"
           height="45.486137"
           width="130.61018"
           id="rect7049"
           style="fill:url(#linearGradient7057);fill-opacity:1;stroke:none;stroke-width:1.29700005;stroke-miterlimit:4;stroke-dasharray:none;stroke-opacity:1" />
      </g>
      <g
         sodipodi:insensitive="true"
         style="display:none"
         inkscape:label="mosaic"
         id="layer6">
        <path
           transform="matrix(0.3812816,0,0,0.4839677,5.268466,25.209244)"
           d="M 12.2 51.602356 A 1.6 1.2 0 1 1  9.0000004,51.602356 A 1.6 1.2 0 1 1  12.2 51.602356 z"
           sodipodi:ry="1.2"
           sodipodi:rx="1.6"
           sodipodi:cy="51.602356"
           sodipodi:cx="10.6"
           id="path3774"
           style="fill:#ffffff;stroke:none;stroke-width:1.29700005;stroke-miterlimit:4;stroke-dasharray:none;stroke-opacity:1"
           sodipodi:type="arc" />
        <path
           sodipodi:type="arc"
           style="fill:#ffffff;stroke:none;stroke-width:1.29700005;stroke-miterlimit:4;stroke-dasharray:none;stroke-opacity:1"
           id="path5059"
           sodipodi:cx="10.6"
           sodipodi:cy="51.602356"
           sodipodi:rx="1.6"
           sodipodi:ry="1.2"
           d="M 12.2 51.602356 A 1.6 1.2 0 1 1  9.0000004,51.602356 A 1.6 1.2 0 1 1  12.2 51.602356 z"
           transform="matrix(0.3812816,0,0,0.4839677,12.622377,29.593305)" />
        <path
           sodipodi:type="arc"
           style="fill:#ffffff;stroke:none;stroke-width:1.29700005;stroke-miterlimit:4;stroke-dasharray:none;stroke-opacity:1"
           id="path5071"
           sodipodi:cx="10.6"
           sodipodi:cy="51.602356"
           sodipodi:rx="1.6"
           sodipodi:ry="1.2"
           d="M 12.2 51.602356 A 1.6 1.2 0 1 1  9.0000004,51.602356 A 1.6 1.2 0 1 1  12.2 51.602356 z"
           transform="matrix(0.3812816,0,0,0.4839677,37.512535,61.413111)" />
        <path
           transform="matrix(0.3812816,0,0,0.4839677,37.9368,27.613406)"
           d="M 12.2 51.602356 A 1.6 1.2 0 1 1  9.0000004,51.602356 A 1.6 1.2 0 1 1  12.2 51.602356 z"
           sodipodi:ry="1.2"
           sodipodi:rx="1.6"
           sodipodi:cy="51.602356"
           sodipodi:cx="10.6"
           id="path5073"
           style="fill:#ffffff;stroke:none;stroke-width:1.29700005;stroke-miterlimit:4;stroke-dasharray:none;stroke-opacity:1"
           sodipodi:type="arc" />
        <path
           sodipodi:type="arc"
           style="fill:#ffffff;stroke:none;stroke-width:1.29700005;stroke-miterlimit:4;stroke-dasharray:none;stroke-opacity:1"
           id="path5075"
           sodipodi:cx="10.6"
           sodipodi:cy="51.602356"
           sodipodi:rx="1.6"
           sodipodi:ry="1.2"
           d="M 12.2 51.602356 A 1.6 1.2 0 1 1  9.0000004,51.602356 A 1.6 1.2 0 1 1  12.2 51.602356 z"
           transform="matrix(0.3812816,0,0,0.4839677,26.340249,64.382959)" />
        <path
           transform="matrix(0.3812816,0,0,0.4839677,30.865732,55.473414)"
           d="M 12.2 51.602356 A 1.6 1.2 0 1 1  9.0000004,51.602356 A 1.6 1.2 0 1 1  12.2 51.602356 z"
           sodipodi:ry="1.2"
           sodipodi:rx="1.6"
           sodipodi:cy="51.602356"
           sodipodi:cx="10.6"
           id="path5077"
           style="fill:#ffffff;stroke:none;stroke-width:1.29700005;stroke-miterlimit:4;stroke-dasharray:none;stroke-opacity:1"
           sodipodi:type="arc" />
        <path
           sodipodi:type="arc"
           style="fill:#ffffff;stroke:none;stroke-width:1.29700005;stroke-miterlimit:4;stroke-dasharray:none;stroke-opacity:1"
           id="path5079"
           sodipodi:cx="10.6"
           sodipodi:cy="51.602356"
           sodipodi:rx="1.6"
           sodipodi:ry="1.2"
           d="M 12.2 51.602356 A 1.6 1.2 0 1 1  9.0000004,51.602356 A 1.6 1.2 0 1 1  12.2 51.602356 z"
           transform="matrix(0.3812816,0,0,0.4839677,32.70421,42.462649)" />
        <path
           transform="matrix(0.3812816,0,0,0.4839677,20.541973,26.057772)"
           d="M 12.2 51.602356 A 1.6 1.2 0 1 1  9.0000004,51.602356 A 1.6 1.2 0 1 1  12.2 51.602356 z"
           sodipodi:ry="1.2"
           sodipodi:rx="1.6"
           sodipodi:cy="51.602356"
           sodipodi:cx="10.6"
           id="path5081"
           style="fill:#ffffff;stroke:none;stroke-width:1.29700005;stroke-miterlimit:4;stroke-dasharray:none;stroke-opacity:1"
           sodipodi:type="arc" />
      </g>
      <g
         style="display:none"
         sodipodi:insensitive="true"
         inkscape:label="sunF"
         id="layer12">
        <path
           id="path3758"
           d="M 12.20725,57.850778 C 10.302272,57.850778 8.4857327,58.144797 6.7697497,58.694528 L 6.7697497,90.788278 C 8.4852187,91.337648 10.302934,91.632028 12.20725,91.632028 C 21.815036,91.632028 29.613499,84.050458 29.6135,74.725778 C 29.6135,65.401093 21.815036,57.850776 12.20725,57.850778 z "
           style="fill:#f57900;stroke:none;stroke-width:1.29700005;stroke-miterlimit:4;stroke-dasharray:none;stroke-opacity:1" />
      </g>
      <g
         sodipodi:insensitive="true"
         style="display:none"
         inkscape:label="leftF"
         id="layer8">
        <g
           style="fill:#cc0000"
           transform="translate(12.079774,-26.99832)"
           id="g3749">
          <path
             style="fill:#cc0000;stroke:none;stroke-width:1.29700005;stroke-miterlimit:4;stroke-dasharray:none;stroke-opacity:1"
             d="M 4.3538282,84.991779 C 3.375934,84.991779 2.4283126,85.116795 1.5100782,85.366779 C 8.3091002,86.132642 13.635078,93.263443 13.635078,101.96053 C 13.635079,109.94563 9.1334262,116.60876 3.1350782,118.24178 C 3.5340683,118.28672 3.9455282,118.33553 4.3538282,118.33553 C 11.719797,118.33553 17.697579,110.85549 17.697578,101.64803 C 17.697578,92.440568 11.719797,84.991776 4.3538282,84.991779 z "
             id="path3628" />
          <path
             style="fill:#cc0000;stroke:none;stroke-width:1.29700005;stroke-miterlimit:4;stroke-dasharray:none;stroke-opacity:1"
             d="M 25.668512,82.714639 C 25.708843,82.943366 25.748811,83.168952 25.748811,83.404952 C 25.748811,86.639029 21.850163,89.262754 17.049738,89.262754 C 13.936962,89.262755 11.198771,88.159263 9.6622174,86.501501 C 10.18722,89.397992 13.840598,91.649268 18.280991,91.649266 C 23.081417,91.649266 26.980064,89.025541 26.980065,85.791464 C 26.980065,84.662575 26.490681,83.609326 25.668512,82.714639 z "
             id="path3635" />
          <path
             style="fill:#cc0000;stroke:none;stroke-width:1.29700005;stroke-miterlimit:4;stroke-dasharray:none;stroke-opacity:1"
             d="M 16.610096,102.70061 C 15.615761,102.71802 14.649245,102.65467 13.717591,102.53151 C 13.8373,101.76194 13.903175,100.9708 13.888979,100.1601 C 13.884675,99.914348 13.862632,99.670346 13.84575,99.428355 C 15.534609,99.925072 17.405703,100.19618 19.394343,100.16136 C 22.760372,100.10242 25.815563,99.21217 28.082235,97.787315 C 26.048973,100.62074 21.691214,102.61163 16.610096,102.70061 z M 7.2152595,89.020909 C 7.1068175,88.968289 6.9883965,88.929087 6.8782175,88.880308 C 7.1170055,88.70246 7.3694495,88.518982 7.6294155,88.354405 C 7.4762725,88.56956 7.3414905,88.796554 7.2152595,89.020909 z "
             id="path3640" />
          <path
             style="fill:#cc0000;stroke:none;stroke-width:1.29700005;stroke-miterlimit:4;stroke-dasharray:none;stroke-opacity:1"
             d="M 17.450627,78.52714 C 19.044965,79.215182 20.073662,80.245454 20.073662,81.405427 C 20.073661,83.475432 16.830428,85.142151 12.845064,85.142151 C 12.136129,85.142151 11.479472,85.064473 10.832037,84.965414 C 12.082841,85.505203 13.655022,85.849099 15.407099,85.849099 C 19.392463,85.849099 22.635696,84.157131 22.635697,82.087127 C 22.635697,80.387738 20.436356,78.987062 17.450627,78.52714 z "
             id="path3645" />
        </g>
      </g>
      <g
         style="display:none"
         inkscape:label="doubleF"
         id="layer15">
        <g
           style="fill:#f57900"
           transform="matrix(0.4747451,-9.0060738e-2,0.1037496,0.5469042,44.671023,28.890519)"
           id="g7104">
          <g
             style="fill:#ef2929"
             transform="matrix(0.9926207,0.1052617,-0.1396921,0.9926207,8.7870787,-8.8530574)"
             id="g7138">
            <g
               style="fill:#ef2929;fill-opacity:1;display:inline"
               transform="translate(94.045665,-46.929713)"
               id="g7072">
              <path
                 style="fill:#ef2929;fill-opacity:1;stroke:none;stroke-width:1.29700005;stroke-miterlimit:4;stroke-dasharray:none;stroke-opacity:1"
                 d="M 4.3538282,84.991779 C 3.375934,84.991779 2.4283126,85.116795 1.5100782,85.366779 C 8.3091002,86.132642 13.635078,93.263443 13.635078,101.96053 C 13.635079,109.94563 9.1334262,116.60876 3.1350782,118.24178 C 3.5340683,118.28672 3.9455282,118.33553 4.3538282,118.33553 C 11.719797,118.33553 17.697579,110.85549 17.697578,101.64803 C 17.697578,92.440568 11.719797,84.991776 4.3538282,84.991779 z "
                 id="path7074" />
              <path
                 style="fill:#ef2929;fill-opacity:1;stroke:none;stroke-width:1.29700005;stroke-miterlimit:4;stroke-dasharray:none;stroke-opacity:1"
                 d="M 25.668512,82.714639 C 25.708843,82.943366 25.748811,83.168952 25.748811,83.404952 C 25.748811,86.639029 21.850163,89.262754 17.049738,89.262754 C 13.936962,89.262755 11.198771,88.159263 9.6622174,86.501501 C 10.18722,89.397992 13.840598,91.649268 18.280991,91.649266 C 23.081417,91.649266 26.980064,89.025541 26.980065,85.791464 C 26.980065,84.662575 26.490681,83.609326 25.668512,82.714639 z "
                 id="path7076" />
              <path
                 style="fill:#ef2929;fill-opacity:1;stroke:none;stroke-width:1.29700005;stroke-miterlimit:4;stroke-dasharray:none;stroke-opacity:1"
                 d="M 16.610096,102.70061 C 15.615761,102.71802 14.649245,102.65467 13.717591,102.53151 C 13.8373,101.76194 13.903175,100.9708 13.888979,100.1601 C 13.884675,99.914348 13.862632,99.670346 13.84575,99.428355 C 15.534609,99.925072 17.405703,100.19618 19.394343,100.16136 C 22.760372,100.10242 25.815563,99.21217 28.082235,97.787315 C 26.048973,100.62074 21.691214,102.61163 16.610096,102.70061 z M 7.2152595,89.020909 C 7.1068175,88.968289 6.9883965,88.929087 6.8782175,88.880308 C 7.1170055,88.70246 7.3694495,88.518982 7.6294155,88.354405 C 7.4762725,88.56956 7.3414905,88.796554 7.2152595,89.020909 z "
                 id="path7078" />
              <path
                 style="fill:#ef2929;fill-opacity:1;stroke:none;stroke-width:1.29700005;stroke-miterlimit:4;stroke-dasharray:none;stroke-opacity:1"
                 d="M 17.450627,78.52714 C 19.044965,79.215182 20.073662,80.245454 20.073662,81.405427 C 20.073661,83.475432 16.830428,85.142151 12.845064,85.142151 C 12.136129,85.142151 11.479472,85.064473 10.832037,84.965414 C 12.082841,85.505203 13.655022,85.849099 15.407099,85.849099 C 19.392463,85.849099 22.635696,84.157131 22.635697,82.087127 C 22.635697,80.387738 20.436356,78.987062 17.450627,78.52714 z "
                 id="path7080" />
            </g>
            <g
               id="g7082"
               transform="matrix(-0.9952334,-9.7522119e-2,9.7522119e-2,-0.9952334,85.306418,156.15563)"
               style="fill:#ef2929;fill-opacity:1;display:inline">
              <path
                 id="path7084"
                 d="M 4.3538282,84.991779 C 3.375934,84.991779 2.4283126,85.116795 1.5100782,85.366779 C 8.3091002,86.132642 13.635078,93.263443 13.635078,101.96053 C 13.635079,109.94563 9.1334262,116.60876 3.1350782,118.24178 C 3.5340683,118.28672 3.9455282,118.33553 4.3538282,118.33553 C 11.719797,118.33553 17.697579,110.85549 17.697578,101.64803 C 17.697578,92.440568 11.719797,84.991776 4.3538282,84.991779 z "
                 style="fill:#ef2929;fill-opacity:1;stroke:none;stroke-width:1.29700005;stroke-miterlimit:4;stroke-dasharray:none;stroke-opacity:1" />
              <path
                 id="path7086"
                 d="M 25.668512,82.714639 C 25.708843,82.943366 25.748811,83.168952 25.748811,83.404952 C 25.748811,86.639029 21.850163,89.262754 17.049738,89.262754 C 13.936962,89.262755 11.198771,88.159263 9.6622174,86.501501 C 10.18722,89.397992 13.840598,91.649268 18.280991,91.649266 C 23.081417,91.649266 26.980064,89.025541 26.980065,85.791464 C 26.980065,84.662575 26.490681,83.609326 25.668512,82.714639 z "
                 style="fill:#ef2929;fill-opacity:1;stroke:none;stroke-width:1.29700005;stroke-miterlimit:4;stroke-dasharray:none;stroke-opacity:1" />
              <path
                 id="path7088"
                 d="M 16.610096,102.70061 C 15.615761,102.71802 14.649245,102.65467 13.717591,102.53151 C 13.8373,101.76194 13.903175,100.9708 13.888979,100.1601 C 13.884675,99.914348 13.862632,99.670346 13.84575,99.428355 C 15.534609,99.925072 17.405703,100.19618 19.394343,100.16136 C 22.760372,100.10242 25.815563,99.21217 28.082235,97.787315 C 26.048973,100.62074 21.691214,102.61163 16.610096,102.70061 z M 7.2152595,89.020909 C 7.1068175,88.968289 6.9883965,88.929087 6.8782175,88.880308 C 7.1170055,88.70246 7.3694495,88.518982 7.6294155,88.354405 C 7.4762725,88.56956 7.3414905,88.796554 7.2152595,89.020909 z "
                 style="fill:#ef2929;fill-opacity:1;stroke:none;stroke-width:1.29700005;stroke-miterlimit:4;stroke-dasharray:none;stroke-opacity:1" />
              <path
                 id="path7090"
                 d="M 17.450627,78.52714 C 19.044965,79.215182 20.073662,80.245454 20.073662,81.405427 C 20.073661,83.475432 16.830428,85.142151 12.845064,85.142151 C 12.136129,85.142151 11.479472,85.064473 10.832037,84.965414 C 12.082841,85.505203 13.655022,85.849099 15.407099,85.849099 C 19.392463,85.849099 22.635696,84.157131 22.635697,82.087127 C 22.635697,80.387738 20.436356,78.987062 17.450627,78.52714 z "
                 style="fill:#ef2929;fill-opacity:1;stroke:none;stroke-width:1.29700005;stroke-miterlimit:4;stroke-dasharray:none;stroke-opacity:1" />
            </g>
          </g>
        </g>
      </g>
      <g
         style="display:inline"
         inkscape:label="BigSunF"
         id="layer26">
        <g
           transform="matrix(2.1174253,0,0,1.5560496,390.48186,144.22978)"
           id="g7449">
          <g
             style="fill:#cc0000;fill-opacity:1;display:inline"
             transform="matrix(0.3964254,-2.3108722e-2,3.0146007e-2,0.4032828,-140.22569,-101.33443)"
             id="g7437">
            <path
               style="fill:#cc0000;fill-opacity:1;stroke:none;stroke-width:1.29700005;stroke-miterlimit:4;stroke-dasharray:none;stroke-opacity:1"
               d="M 4.3538282,84.991779 C 3.375934,84.991779 2.4283126,85.116795 1.5100782,85.366779 C 8.3091002,86.132642 13.635078,93.263443 13.635078,101.96053 C 13.635079,109.94563 9.1334262,116.60876 3.1350782,118.24178 C 3.5340683,118.28672 3.9455282,118.33553 4.3538282,118.33553 C 11.719797,118.33553 17.697579,110.85549 17.697578,101.64803 C 17.697578,92.440568 11.719797,84.991776 4.3538282,84.991779 z "
               id="path7439" />
            <path
               style="fill:#cc0000;fill-opacity:1;stroke:none;stroke-width:1.29700005;stroke-miterlimit:4;stroke-dasharray:none;stroke-opacity:1"
               d="M 25.668512,82.714639 C 25.708843,82.943366 25.748811,83.168952 25.748811,83.404952 C 25.748811,86.639029 21.850163,89.262754 17.049738,89.262754 C 13.936962,89.262755 11.198771,88.159263 9.6622174,86.501501 C 10.18722,89.397992 13.840598,91.649268 18.280991,91.649266 C 23.081417,91.649266 26.980064,89.025541 26.980065,85.791464 C 26.980065,84.662575 26.490681,83.609326 25.668512,82.714639 z "
               id="path7441" />
            <path
               style="fill:#cc0000;fill-opacity:1;stroke:none;stroke-width:1.29700005;stroke-miterlimit:4;stroke-dasharray:none;stroke-opacity:1"
               d="M 16.610096,102.70061 C 15.615761,102.71802 14.649245,102.65467 13.717591,102.53151 C 13.8373,101.76194 13.903175,100.9708 13.888979,100.1601 C 13.884675,99.914348 13.862632,99.670346 13.84575,99.428355 C 15.534609,99.925072 17.405703,100.19618 19.394343,100.16136 C 22.760372,100.10242 25.815563,99.21217 28.082235,97.787315 C 26.048973,100.62074 21.691214,102.61163 16.610096,102.70061 z M 7.2152595,89.020909 C 7.1068175,88.968289 6.9883965,88.929087 6.8782175,88.880308 C 7.1170055,88.70246 7.3694495,88.518982 7.6294155,88.354405 C 7.4762725,88.56956 7.3414905,88.796554 7.2152595,89.020909 z "
               id="path7443" />
            <path
               style="fill:#cc0000;fill-opacity:1;stroke:none;stroke-width:1.29700005;stroke-miterlimit:4;stroke-dasharray:none;stroke-opacity:1"
               d="M 17.450627,78.52714 C 19.044965,79.215182 20.073662,80.245454 20.073662,81.405427 C 20.073661,83.475432 16.830428,85.142151 12.845064,85.142151 C 12.136129,85.142151 11.479472,85.064473 10.832037,84.965414 C 12.082841,85.505203 13.655022,85.849099 15.407099,85.849099 C 19.392463,85.849099 22.635696,84.157131 22.635697,82.087127 C 22.635697,80.387738 20.436356,78.987062 17.450627,78.52714 z "
               id="path7445" />
          </g>
          <path
             sodipodi:type="arc"
             style="fill:#f57900;stroke:none;stroke-width:1.29700005;stroke-miterlimit:4;stroke-dasharray:none;stroke-opacity:1;display:inline"
             id="path7447"
             sodipodi:cx="57.669922"
             sodipodi:cy="82.692116"
             sodipodi:rx="9.2596769"
             sodipodi:ry="8.1225243"
             d="M 66.929599 82.692116 A 9.2596769 8.1225243 0 1 1  48.410245,82.692116 A 9.2596769 8.1225243 0 1 1  66.929599 82.692116 z"
             transform="matrix(0.591394,0,0,0.6389223,-172.80184,-113.03415)" />
        </g>
      </g>
      <g
         style="display:none"
         sodipodi:insensitive="true"
         inkscape:label="underArrow"
         id="layer25">
        <g
           style="fill:#babdb6;display:inline"
           transform="matrix(1,0,0,-1,-0.9681982,189.52002)"
           id="g7423">
          <path
             style="fill:#babdb6;fill-opacity:1;stroke:none;stroke-width:1.29700005;stroke-miterlimit:4;stroke-dasharray:none;stroke-opacity:1"
             d="M 112.4521,80.130214 C 81.061709,80.130214 55.208058,88.729101 52.23335,99.692717 C 60.041964,91.474523 84.571484,85.473964 113.60835,85.473964 C 138.91835,85.473966 160.82793,90.047831 171.2021,96.661464 C 164.76037,87.180346 140.89954,80.130216 112.4521,80.130214 z "
             id="path7425" />
          <path
             sodipodi:type="star"
             style="fill:#babdb6;stroke:none;stroke-width:1.29700005;stroke-miterlimit:4;stroke-dasharray:none;stroke-opacity:1;display:inline"
             id="path7427"
             sodipodi:sides="6"
             sodipodi:cx="115.96267"
             sodipodi:cy="104.11104"
             sodipodi:r1="7.0294118"
             sodipodi:r2="3.5147059"
             sodipodi:arg1="-0.094951706"
             sodipodi:arg2="0.42864707"
             inkscape:flatsided="false"
             inkscape:rounded="0"
             inkscape:randomized="0"
             d="M 122.96042,103.44459 L 119.1594,105.57189 L 120.03871,109.83804 L 116.2959,107.60991 L 113.04096,110.50449 L 113.09917,106.14906 L 108.96492,104.77749 L 112.76594,102.65018 L 111.88663,98.384037 L 115.62944,100.61216 L 118.88438,97.717585 L 118.82617,102.07302 L 122.96042,103.44459 z "
             transform="matrix(0.6904762,0,0,0.8436403,89.633269,8.4592717)" />
        </g>
      </g>
      <g
         sodipodi:insensitive="true"
         style="display:none"
         inkscape:label="circleF"
         id="layer17">
        <g
           id="g7251"
           transform="matrix(0.3964254,-2.3108722e-2,3.0146007e-2,0.4032828,159.00808,16.767072)"
           style="fill:#cc0000;fill-opacity:1;display:inline">
          <path
             id="path7253"
             d="M 4.3538282,84.991779 C 3.375934,84.991779 2.4283126,85.116795 1.5100782,85.366779 C 8.3091002,86.132642 13.635078,93.263443 13.635078,101.96053 C 13.635079,109.94563 9.1334262,116.60876 3.1350782,118.24178 C 3.5340683,118.28672 3.9455282,118.33553 4.3538282,118.33553 C 11.719797,118.33553 17.697579,110.85549 17.697578,101.64803 C 17.697578,92.440568 11.719797,84.991776 4.3538282,84.991779 z "
             style="fill:#cc0000;fill-opacity:1;stroke:none;stroke-width:1.29700005;stroke-miterlimit:4;stroke-dasharray:none;stroke-opacity:1" />
          <path
             id="path7255"
             d="M 25.668512,82.714639 C 25.708843,82.943366 25.748811,83.168952 25.748811,83.404952 C 25.748811,86.639029 21.850163,89.262754 17.049738,89.262754 C 13.936962,89.262755 11.198771,88.159263 9.6622174,86.501501 C 10.18722,89.397992 13.840598,91.649268 18.280991,91.649266 C 23.081417,91.649266 26.980064,89.025541 26.980065,85.791464 C 26.980065,84.662575 26.490681,83.609326 25.668512,82.714639 z "
             style="fill:#cc0000;fill-opacity:1;stroke:none;stroke-width:1.29700005;stroke-miterlimit:4;stroke-dasharray:none;stroke-opacity:1" />
          <path
             id="path7257"
             d="M 16.610096,102.70061 C 15.615761,102.71802 14.649245,102.65467 13.717591,102.53151 C 13.8373,101.76194 13.903175,100.9708 13.888979,100.1601 C 13.884675,99.914348 13.862632,99.670346 13.84575,99.428355 C 15.534609,99.925072 17.405703,100.19618 19.394343,100.16136 C 22.760372,100.10242 25.815563,99.21217 28.082235,97.787315 C 26.048973,100.62074 21.691214,102.61163 16.610096,102.70061 z M 7.2152595,89.020909 C 7.1068175,88.968289 6.9883965,88.929087 6.8782175,88.880308 C 7.1170055,88.70246 7.3694495,88.518982 7.6294155,88.354405 C 7.4762725,88.56956 7.3414905,88.796554 7.2152595,89.020909 z "
             style="fill:#cc0000;fill-opacity:1;stroke:none;stroke-width:1.29700005;stroke-miterlimit:4;stroke-dasharray:none;stroke-opacity:1" />
          <path
             id="path7259"
             d="M 17.450627,78.52714 C 19.044965,79.215182 20.073662,80.245454 20.073662,81.405427 C 20.073661,83.475432 16.830428,85.142151 12.845064,85.142151 C 12.136129,85.142151 11.479472,85.064473 10.832037,84.965414 C 12.082841,85.505203 13.655022,85.849099 15.407099,85.849099 C 19.392463,85.849099 22.635696,84.157131 22.635697,82.087127 C 22.635697,80.387738 20.436356,78.987062 17.450627,78.52714 z "
             style="fill:#cc0000;fill-opacity:1;stroke:none;stroke-width:1.29700005;stroke-miterlimit:4;stroke-dasharray:none;stroke-opacity:1" />
        </g>
        <path
           transform="matrix(0.591394,0,0,0.6389223,126.43193,5.0673521)"
           d="M 66.929599 82.692116 A 9.2596769 8.1225243 0 1 1  48.410245,82.692116 A 9.2596769 8.1225243 0 1 1  66.929599 82.692116 z"
           sodipodi:ry="8.1225243"
           sodipodi:rx="9.2596769"
           sodipodi:cy="82.692116"
           sodipodi:cx="57.669922"
           id="path7261"
           style="fill:#f57900;stroke:none;stroke-width:1.29700005;stroke-miterlimit:4;stroke-dasharray:none;stroke-opacity:1"
           sodipodi:type="arc" />
        <path
           id="path7263"
           d="M 95.025297,43.364074 C 63.995258,43.364074 37.768084,49.852764 29.244047,58.739074 C 47.107844,47.729277 69.566074,46.015183 90.494047,45.176574 C 102.73601,44.977878 114.97934,45.735962 126.99404,47.739074 C 139.89013,50.433971 154.84097,52.938465 163.43154,62.926574 C 160.13921,51.961991 130.75439,43.364072 95.025297,43.364074 z "
           style="fill:#f57900;stroke:none;stroke-width:1.29700005;stroke-miterlimit:4;stroke-dasharray:none;stroke-opacity:1" />
      </g>
      <g
         style="display:none"
         inkscape:label="starflare"
         id="layer5">
        <path
           id="path3428"
           d="M 115.37621,48.614821 C 83.985818,48.614821 58.132167,57.213708 55.157459,68.177324 C 62.966073,59.95913 87.495593,53.958571 116.53246,53.958571 C 141.84246,53.958573 163.75204,58.532438 174.12621,65.146071 C 167.68448,55.664953 143.82365,48.614823 115.37621,48.614821 z "
           style="fill:#f57900;fill-opacity:1;stroke:none;stroke-width:1.29700005;stroke-miterlimit:4;stroke-dasharray:none;stroke-opacity:1" />
        <g
           transform="matrix(0.625,0,0,0.6354167,143.36255,20.844494)"
           id="g7177">
          <path
             sodipodi:type="star"
             style="fill:#ef2929;stroke:none;stroke-width:1.29700005;stroke-miterlimit:4;stroke-dasharray:none;stroke-opacity:1"
             id="path7179"
             sodipodi:sides="4"
             sodipodi:cx="21.443462"
             sodipodi:cy="48.577511"
             sodipodi:r1="15.59863"
             sodipodi:r2="1.4038767"
             sodipodi:arg1="-0.02083032"
             sodipodi:arg2="0.76456784"
             inkscape:flatsided="false"
             inkscape:rounded="0"
             inkscape:randomized="0"
             d="M 37.038708,48.25261 L 22.456614,49.54931 L 21.768363,64.172757 L 20.471664,49.590663 L 5.8482164,48.902412 L 20.43031,47.605712 L 21.118561,32.982265 L 22.415261,47.564359 L 37.038708,48.25261 z "
             transform="translate(24.692473,18.844255)" />
          <path
             transform="matrix(0.7619393,0.6476484,-0.6476484,0.7619393,61.258467,16.520826)"
             d="M 37.038708,48.25261 L 22.456614,49.54931 L 21.768363,64.172757 L 20.471664,49.590663 L 5.8482164,48.902412 L 20.43031,47.605712 L 21.118561,32.982265 L 22.415261,47.564359 L 37.038708,48.25261 z "
             inkscape:randomized="0"
             inkscape:rounded="0"
             inkscape:flatsided="false"
             sodipodi:arg2="0.76456784"
             sodipodi:arg1="-0.02083032"
             sodipodi:r2="1.4038767"
             sodipodi:r1="15.59863"
             sodipodi:cy="48.577511"
             sodipodi:cx="21.443462"
             sodipodi:sides="4"
             id="path7181"
             style="fill:#f57900;stroke:none;stroke-width:1.29700005;stroke-miterlimit:4;stroke-dasharray:none;stroke-opacity:1"
             sodipodi:type="star" />
        </g>
      </g>
      <g
         sodipodi:insensitive="true"
         style="display:none"
         inkscape:label="flarebyte.com handwr"
         id="layer20">
        <text
           id="text7295"
           y="80.957191"
           x="12.983115"
           style="font-size:12px;font-style:normal;font-weight:normal;fill:#f57900;fill-opacity:1;stroke:none;stroke-width:1px;stroke-linecap:butt;stroke-linejoin:miter;stroke-opacity:1;display:inline;font-family:Bitstream Vera Sans"
           xml:space="preserve"><tspan
             style="font-size:24px;fill:#f57900;fill-opacity:1;font-family:Handwriting -Dakota"
             y="80.957191"
             x="12.983115"
             id="tspan7297"
             sodipodi:role="line">flare<tspan
   id="tspan7299"
   style="fill:#204a87;fill-opacity:1">byte</tspan>.com</tspan></text>
      </g>
      <g
         sodipodi:insensitive="true"
         style="display:inline"
         inkscape:label="flarebyte.com trek"
         id="layer21">
        <text
           id="text7302"
           y="82.692093"
           x="25.017374"
           style="font-size:12px;font-style:normal;font-weight:normal;fill:#000000;fill-opacity:1;stroke:none;stroke-width:1px;stroke-linecap:butt;stroke-linejoin:miter;stroke-opacity:1;font-family:Bitstream Vera Sans"
           xml:space="preserve"><tspan
             style="font-size:22px;fill:#a40000;font-family:Trek"
             y="82.692093"
             x="25.017374"
             id="tspan7304"
             sodipodi:role="line"><tspan
               id="tspan7404"
               style="fill:#cc0000">flare</tspan><tspan
               id="tspan7372"
               style="fill:#f57900">byte</tspan><tspan
               id="tspan7402"
               style="fill:#cc0000">.com</tspan></tspan></text>
      </g>
      <g
         sodipodi:insensitive="true"
         style="display:none"
         inkscape:label="flarebyte.com masque"
         id="layer19">
        <text
           id="text7284"
           y="82.367195"
           x="11.343485"
           style="font-size:12px;font-style:normal;font-weight:normal;fill:#000000;fill-opacity:1;stroke:none;stroke-width:1px;stroke-linecap:butt;stroke-linejoin:miter;stroke-opacity:1;display:inline;font-family:Bitstream Vera Sans"
           xml:space="preserve"><tspan
             style="font-size:18px;fill:#fcaf3e;font-family:Masque"
             y="82.367195"
             x="11.343485"
             id="tspan7286"
             sodipodi:role="line"><tspan
               id="tspan7288"
               style="fill:#f57900">flare</tspan><tspan
               id="tspan7290"
               style="fill:#ef2929">byte</tspan><tspan
               id="tspan7292"
               style="fill:#f57900">.com</tspan></tspan></text>
      </g>
      <g
         sodipodi:insensitive="true"
         style="display:none"
         inkscape:label="flarebyte.com audimat"
         id="layer18">
        <text
           id="text7277"
           y="83.507889"
           x="23.765566"
           style="font-size:12px;font-style:normal;font-weight:normal;fill:#000000;fill-opacity:1;stroke:none;stroke-width:1px;stroke-linecap:butt;stroke-linejoin:miter;stroke-opacity:1;display:inline;font-family:American Typewriter"
           xml:space="preserve"><tspan
             style="font-size:28px;fill:#f57900;font-family:AUdimat"
             y="83.507889"
             x="23.765566"
             id="tspan7279"
             sodipodi:role="line">flare<tspan
   id="tspan7281"
   style="font-size:28px;fill:#ef2929">byte</tspan>.com</tspan></text>
      </g>
      <g
         sodipodi:insensitive="true"
         style="display:none"
         inkscape:label="losangeF"
         id="layer16">
        <g
           transform="matrix(1.0833333,0,0,0.9583333,-15.541095,6.0582499)"
           id="g7167">
          <path
             sodipodi:type="star"
             style="fill:#ef2929;stroke:none;stroke-width:1.29700005;stroke-miterlimit:4;stroke-dasharray:none;stroke-opacity:1"
             id="path7163"
             sodipodi:sides="4"
             sodipodi:cx="21.443462"
             sodipodi:cy="48.577511"
             sodipodi:r1="15.59863"
             sodipodi:r2="1.4038767"
             sodipodi:arg1="-0.02083032"
             sodipodi:arg2="0.76456784"
             inkscape:flatsided="false"
             inkscape:rounded="0"
             inkscape:randomized="0"
             d="M 37.038708,48.25261 L 22.456614,49.54931 L 21.768363,64.172757 L 20.471664,49.590663 L 5.8482164,48.902412 L 20.43031,47.605712 L 21.118561,32.982265 L 22.415261,47.564359 L 37.038708,48.25261 z "
             transform="translate(24.692473,18.844255)" />
          <path
             transform="matrix(0.7619393,0.6476484,-0.6476484,0.7619393,61.258467,16.520826)"
             d="M 37.038708,48.25261 L 22.456614,49.54931 L 21.768363,64.172757 L 20.471664,49.590663 L 5.8482164,48.902412 L 20.43031,47.605712 L 21.118561,32.982265 L 22.415261,47.564359 L 37.038708,48.25261 z "
             inkscape:randomized="0"
             inkscape:rounded="0"
             inkscape:flatsided="false"
             sodipodi:arg2="0.76456784"
             sodipodi:arg1="-0.02083032"
             sodipodi:r2="1.4038767"
             sodipodi:r1="15.59863"
             sodipodi:cy="48.577511"
             sodipodi:cx="21.443462"
             sodipodi:sides="4"
             id="path7165"
             style="fill:#f57900;stroke:none;stroke-width:1.29700005;stroke-miterlimit:4;stroke-dasharray:none;stroke-opacity:1"
             sodipodi:type="star" />
        </g>
      </g>
    </g>
  </g>
</svg>
